<svg xmlns="http://www.w3.org/2000/svg" viewBox="0 0 547.9391 97.099363">
  <svg x="0" y="2.246617" width="129.648582" height="92.606130" viewBox="0 0 56 40" preserveAspectRatio="none">
    <path d="M43 0C50.1797 6.44277e-07 56 5.8203 56 13C56 20.1797 50.1797 26 43 26H34.4844L48.4844 40H31.5156L15.7578 24.2422C14.672 23.1564 14 21.6569 14 20C14 16.6863 16.6863 14 20 14H43C43.5523 14 44 13.5523 44 13C44 12.4477 43.5523 12 43 12H20C15.5817 12 12 15.5817 12 20C12 22.3901 13.0482 24.5347 14.71 26H14.6875L28.6875 40H20C8.95431 40 0 31.0457 0 20C0 8.95431 8.9543 0 20 0H43Z" fill="B"/>
    <path d="M56 28V40H51.3125L39.3125 28H56Z" fill="B"/>
  </svg>
  <g transform="translate(146.980336,-0.958773) scale(1.369675)">
    <path d="M28.63 28L16.52 28Q16.52 25.27 16.52 22.47Q16.52 19.67 16.52 16.94L16.52 16.94Q16.52 15.92 16.01 15.50Q15.51 15.08 14.81 15.05Q14.11 15.01 13.53 15.22Q12.95 15.43 12.81 15.64L12.81 15.64L15.61 6.65Q16.87 6.09 18.31 5.81Q19.74 5.53 21.14 5.53L21.14 5.53Q23.10 5.53 24.80 6.16Q26.50 6.79 27.56 8.15Q28.63 9.52 28.63 11.79L28.63 11.79L28.63 28ZM12.81 28L0.70 28Q0.70 25.76 0.70 23.50Q0.70 21.24 0.70 18.99Q0.70 16.73 0.70 14.49L0.70 14.49Q0.70 12.42 0.70 10.38Q0.70 8.33 0.70 6.30L0.70 6.30Q2.73 6.30 4.74 6.30Q6.76 6.30 8.79 6.30Q10.82 6.30 12.81 6.30L12.81 6.30Q12.81 7.56 12.81 8.70Q12.81 9.83 12.81 10.97Q12.81 12.11 12.81 13.25Q12.81 14.38 12.81 15.64L12.81 15.64Q12.81 16.10 12.81 16.54Q12.81 16.98 12.81 17.46L12.81 17.46Q12.81 20.05 12.81 22.79Q12.81 25.52 12.81 28L12.81 28ZM45.40 29.05L45.40 29.05Q43.23 29.05 41.20 28.73Q39.17 28.42 37.42 27.77Q35.67 27.13 34.23 26.14Q32.80 25.16 31.78 23.85Q30.77 22.54 30.21 20.88Q29.65 19.21 29.65 17.18L29.65 17.18Q29.65 14.80 30.43 12.90Q31.22 10.99 32.67 9.55Q34.13 8.12 36.09 7.16Q38.05 6.19 40.41 5.72Q42.77 5.25 45.40 5.25L45.40 5.25Q48.69 5.25 51.54 6.00Q54.39 6.75 56.54 8.24Q58.70 9.73 59.92 11.97Q61.15 14.21 61.15 17.18L61.15 17.18Q61.15 20.16 59.92 22.38Q58.70 24.61 56.54 26.09Q54.39 27.58 51.54 28.32Q48.69 29.05 45.40 29.05ZM45.43 19.77L45.43 19.77Q47.60 19.77 48.51 18.93Q49.42 18.09 49.42 17.11L49.42 17.11Q49.42 16.66 49.21 16.20Q49 15.75 48.55 15.36Q48.09 14.98 47.32 14.75Q46.55 14.52 45.43 14.52L45.43 14.52Q44.31 14.52 43.52 14.75Q42.73 14.98 42.26 15.36Q41.79 15.75 41.58 16.20Q41.37 16.66 41.37 17.15L41.37 17.15Q41.37 17.64 41.58 18.11Q41.79 18.59 42.28 18.95Q42.77 19.32 43.54 19.55Q44.31 19.77 45.43 19.77ZM83.51 15.82L74.27 15.82Q74.69 14.21 75.09 12.63Q75.50 11.06 75.90 9.47Q76.30 7.87 76.69 6.30L76.69 6.30L83.51 6.30L83.51 15.82ZM62.27 18.86L62.27 18.86Q62.27 15.85 62.27 12.53Q62.27 9.20 62.27 6.23L62.27 6.23L74.24 3.36Q74.24 5.07 74.24 6.86Q74.24 8.64 74.24 10.43L74.24 10.43Q74.24 11.72 74.24 13.02Q74.24 14.31 74.24 15.57L74.24 15.57Q74.24 15.61 74.24 15.61Q74.24 15.61 74.24 15.64L74.24 15.64Q74.24 16.31 74.53 16.80Q74.83 17.29 75.37 17.62Q75.92 17.95 76.65 18.13Q77.39 18.30 78.30 18.30L78.30 18.30Q79.31 18.30 80.36 17.99Q81.41 17.67 82.27 17.11Q83.13 16.55 83.51 15.82L83.51 15.82L83.51 26.46Q82.01 27.65 79.63 28.23Q77.25 28.80 74.87 28.80L74.87 28.80Q71.26 28.80 68.41 27.63Q65.56 26.46 63.91 24.24Q62.27 22.02 62.27 18.86ZM97.02 28L84.91 28Q84.91 26.39 84.91 24.80Q84.91 23.20 84.91 21.61Q84.91 20.02 84.91 18.45L84.91 18.45Q84.91 17.78 84.91 17.11Q84.91 16.45 84.91 15.78L84.91 15.78Q86.94 15.78 88.95 15.78Q90.97 15.78 93.00 15.78Q95.03 15.78 97.02 15.78L97.02 15.78Q97.02 17.81 97.02 19.84Q97.02 21.88 97.02 23.92Q97.02 25.97 97.02 28L97.02 28ZM84.91 15.78L84.91 15.78Q84.91 13.40 84.91 11.02Q84.91 8.64 84.91 6.30L84.91 6.30L97.02 6.30Q97.02 7.45 97.02 8.61Q97.02 9.76 97.02 10.92Q97.02 12.07 97.02 13.23L97.02 13.23Q97.02 13.23 97.00 13.25Q96.99 13.26 96.99 13.26L96.99 13.26Q93.98 13.89 90.95 14.52Q87.92 15.15 84.91 15.78ZM113.72 0.70L113.72 0.70Q109.62 0.70 106.61 2.13Q103.60 3.57 101.96 6.18Q100.31 8.78 100.31 12.25L100.31 12.25L100.31 12.60Q99.86 13.93 99.42 15.29Q98.98 16.66 98.53 18.01Q98.07 19.35 97.62 20.72L97.62 20.72L100.28 20.72Q100.31 20.72 100.31 20.72Q100.31 20.72 100.31 20.75L100.31 20.75Q100.31 22.16 100.31 23.26Q100.31 24.36 100.31 25.48Q100.31 26.60 100.31 28L100.31 28L112.53 28Q112.53 26.60 112.53 25.48Q112.53 24.36 112.53 23.26Q112.53 22.16 112.53 20.75L112.53 20.75Q112.53 20.72 112.53 20.72Q112.53 20.72 112.56 20.72L112.56 20.72L116.45 20.72L118.97 12.60L112.56 12.60Q112.56 12.60 112.54 12.60Q112.53 12.60 112.53 12.58Q112.53 12.56 112.53 12.56L112.53 12.56Q112.53 12.04 112.67 11.62Q112.81 11.20 113.07 10.88Q113.33 10.57 113.72 10.38Q114.10 10.18 114.59 10.08Q115.08 9.97 115.64 9.97L115.64 9.97Q116.87 9.97 117.92 10.62Q118.97 11.27 118.97 12.60L118.97 12.60L122.12 2.55Q121.31 2.06 119.91 1.64Q118.51 1.22 116.88 0.96Q115.26 0.70 113.72 0.70ZM133.59 28L121.49 28Q121.49 26.39 121.49 24.80Q121.49 23.20 121.49 21.61Q121.49 20.02 121.49 18.45L121.49 18.45Q121.49 17.78 121.49 17.11Q121.49 16.45 121.49 15.78L121.49 15.78Q123.52 15.78 125.53 15.78Q127.54 15.78 129.57 15.78Q131.60 15.78 133.59 15.78L133.59 15.78Q133.59 17.81 133.59 19.84Q133.59 21.88 133.59 23.92Q133.59 25.97 133.59 28L133.59 28ZM121.49 15.78L121.49 15.78Q121.49 13.40 121.49 11.02Q121.49 8.64 121.49 6.30L121.49 6.30L133.59 6.30Q133.59 7.45 133.59 8.61Q133.59 9.76 133.59 10.92Q133.59 12.07 133.59 13.23L133.59 13.23Q133.59 13.23 133.58 13.25Q133.56 13.26 133.56 13.26L133.56 13.26Q130.55 13.89 127.52 14.52Q124.50 15.15 121.49 15.78ZM150.40 29.05L150.40 29.05Q147.11 29.05 144.25 28.32Q141.40 27.58 139.25 26.09Q137.10 24.61 135.87 22.36Q134.65 20.13 134.65 17.15L134.65 17.15Q134.65 15.61 134.98 14.28Q135.31 12.95 135.94 11.81Q136.57 10.67 137.46 9.73Q138.36 8.78 139.48 8.05L139.48 8.05Q140.91 7.10 142.63 6.49Q144.34 5.88 146.32 5.56Q148.30 5.25 150.40 5.25L150.40 5.25Q154.42 5.25 157.66 6.35Q160.90 7.45 163.01 9.66Q165.13 11.86 165.66 15.19L165.66 15.19L154.42 17.18Q154.42 16.24 153.83 15.64Q153.23 15.05 152.32 14.79Q151.41 14.52 150.40 14.52L150.40 14.52Q149.28 14.52 148.35 14.82Q147.42 15.12 146.90 15.70Q146.37 16.27 146.37 17.15L146.37 17.15Q146.37 17.81 146.67 18.30Q146.97 18.80 147.53 19.13Q148.09 19.46 148.82 19.62Q149.56 19.77 150.40 19.77L150.40 19.77Q151.38 19.77 152.30 19.53Q153.23 19.28 153.83 18.71Q154.42 18.13 154.42 17.18L154.42 17.18Q157.36 17.53 160.06 17.90Q162.75 18.27 165.69 18.66L165.69 18.66Q165.27 22.05 163.19 24.38Q161.11 26.70 157.80 27.88Q154.49 29.05 150.40 29.05ZM168.25 7.56L168.25 7.56L168.25 15.92Q169.82 14.91 171.92 14.38Q174.02 13.86 176.09 13.86L176.09 13.86Q177.42 13.86 178.62 14.10Q179.83 14.35 180.76 14.86Q181.69 15.36 182.23 16.15Q182.77 16.94 182.77 18.02L182.77 18.02Q182.77 18.06 182.77 18.11Q182.77 18.16 182.77 18.22Q182.77 18.27 182.77 18.34L182.77 18.34Q182.25 17.64 181.42 17.08Q180.60 16.52 179.57 16.13Q178.54 15.75 177.38 15.56Q176.23 15.36 175 15.36L175 15.36Q173.11 15.36 171.64 15.73Q170.17 16.10 169.10 16.77Q168.04 17.43 167.34 18.30Q166.64 19.18 166.29 20.16Q165.94 21.14 165.94 22.16L165.94 22.16Q165.94 23.84 166.64 25.09Q167.34 26.36 168.54 27.20Q169.75 28.04 171.27 28.47Q172.80 28.91 174.44 28.91L174.44 28.91Q175.81 28.91 177.19 28.65Q178.57 28.39 179.83 27.75L179.83 27.75Q180.57 26.04 181.32 24.32Q182.07 22.61 182.81 20.89L182.81 20.89Q182.39 21.91 181.58 22.16Q180.78 22.40 180.15 22.40L180.15 22.40Q178.85 22.40 178.15 21.86Q177.45 21.31 177.45 20.65L177.45 20.65Q177.45 19.98 178.13 19.46Q178.82 18.93 180.15 18.93L180.15 18.93Q180.74 18.93 181.34 19.09Q181.93 19.25 182.35 19.63Q182.77 20.02 182.77 20.65L182.77 20.65Q182.77 22.47 182.77 24.31Q182.77 26.14 182.77 28L182.77 28Q184.00 28 185.22 28Q186.45 28 187.67 28Q188.90 28 190.12 28Q191.35 28 192.57 28Q193.80 28 195.02 28L195.02 28Q195.02 24.61 195.02 21.21Q195.02 17.81 195.02 14.42L195.02 14.42Q195.02 12.11 193.76 10.39Q192.50 8.68 190.35 7.52Q188.20 6.37 185.47 5.81Q182.74 5.25 179.80 5.25L179.80 5.25Q176.79 5.25 173.79 5.83Q170.80 6.40 168.25 7.56ZM217.70 15.82L208.46 15.82Q208.88 14.21 209.28 12.63Q209.69 11.06 210.09 9.47Q210.49 7.87 210.88 6.30L210.88 6.30L217.70 6.30L217.70 15.82ZM196.46 18.86L196.46 18.86Q196.46 15.85 196.46 12.53Q196.46 9.20 196.46 6.23L196.46 6.23L208.43 3.36Q208.43 5.07 208.43 6.86Q208.43 8.64 208.43 10.43L208.43 10.43Q208.43 11.72 208.43 13.02Q208.43 14.31 208.43 15.57L208.43 15.57Q208.43 15.61 208.43 15.61Q208.43 15.61 208.43 15.64L208.43 15.64Q208.43 16.31 208.72 16.80Q209.02 17.29 209.56 17.62Q210.11 17.95 210.84 18.13Q211.58 18.30 212.49 18.30L212.49 18.30Q213.50 18.30 214.55 17.99Q215.60 17.67 216.46 17.11Q217.31 16.55 217.70 15.82L217.70 15.82L217.70 26.46Q216.19 27.65 213.81 28.23Q211.44 28.80 209.06 28.80L209.06 28.80Q205.45 28.80 202.60 27.63Q199.75 26.46 198.10 24.24Q196.46 22.02 196.46 18.86ZM231.21 28L219.10 28Q219.10 26.39 219.10 24.80Q219.10 23.20 219.10 21.61Q219.10 20.02 219.10 18.45L219.10 18.45Q219.10 17.78 219.10 17.11Q219.10 16.45 219.10 15.78L219.10 15.78Q221.13 15.78 223.14 15.78Q225.16 15.78 227.19 15.78Q229.22 15.78 231.21 15.78L231.21 15.78Q231.21 17.81 231.21 19.84Q231.21 21.88 231.21 23.92Q231.21 25.97 231.21 28L231.21 28ZM219.10 15.78L219.10 15.78Q219.10 13.40 219.10 11.02Q219.10 8.64 219.10 6.30L219.10 6.30L231.21 6.30Q231.21 7.45 231.21 8.61Q231.21 9.76 231.21 10.92Q231.21 12.07 231.21 13.23L231.21 13.23Q231.21 13.23 231.19 13.25Q231.18 13.26 231.18 13.26L231.18 13.26Q228.17 13.89 225.14 14.52Q222.11 15.15 219.10 15.78ZM248.01 29.05L248.01 29.05Q245.84 29.05 243.81 28.73Q241.78 28.42 240.03 27.77Q238.28 27.13 236.84 26.14Q235.41 25.16 234.40 23.85Q233.38 22.54 232.82 20.88Q232.26 19.21 232.26 17.18L232.26 17.18Q232.26 14.80 233.05 12.90Q233.84 10.99 235.29 9.55Q236.74 8.12 238.70 7.16Q240.66 6.19 243.02 5.72Q245.38 5.25 248.01 5.25L248.01 5.25Q251.30 5.25 254.15 6.00Q257.00 6.75 259.16 8.24Q261.31 9.73 262.54 11.97Q263.76 14.21 263.76 17.18L263.76 17.18Q263.76 20.16 262.54 22.38Q261.31 24.61 259.16 26.09Q257.00 27.58 254.15 28.32Q251.30 29.05 248.01 29.05ZM248.04 19.77L248.04 19.77Q250.22 19.77 251.13 18.93Q252.03 18.09 252.03 17.11L252.03 17.11Q252.03 16.66 251.82 16.20Q251.62 15.75 251.16 15.36Q250.70 14.98 249.94 14.75Q249.16 14.52 248.04 14.52L248.04 14.52Q246.93 14.52 246.14 14.75Q245.35 14.98 244.88 15.36Q244.41 15.75 244.19 16.20Q243.98 16.66 243.98 17.15L243.98 17.15Q243.98 17.64 244.19 18.11Q244.41 18.59 244.90 18.95Q245.38 19.32 246.16 19.55Q246.93 19.77 248.04 19.77ZM292.74 28L280.63 28Q280.63 25.27 280.63 22.47Q280.63 19.67 280.63 16.94L280.63 16.94Q280.63 15.92 280.12 15.50Q279.62 15.08 278.92 15.05Q278.22 15.01 277.64 15.22Q277.06 15.43 276.92 15.64L276.92 15.64L279.72 6.65Q280.98 6.09 282.42 5.81Q283.85 5.53 285.25 5.53L285.25 5.53Q287.21 5.53 288.91 6.16Q290.61 6.79 291.67 8.15Q292.74 9.52 292.74 11.79L292.74 11.79L292.74 28ZM276.92 28L264.81 28Q264.81 25.76 264.81 23.50Q264.81 21.24 264.81 18.99Q264.81 16.73 264.81 14.49L264.81 14.49Q264.81 12.42 264.81 10.38Q264.81 8.33 264.81 6.30L264.81 6.30Q266.84 6.30 268.85 6.30Q270.87 6.30 272.90 6.30Q274.93 6.30 276.92 6.30L276.92 6.30Q276.92 7.56 276.92 8.70Q276.92 9.83 276.92 10.97Q276.92 12.11 276.92 13.25Q276.92 14.38 276.92 15.64L276.92 15.64Q276.92 16.10 276.92 16.54Q276.92 16.98 276.92 17.46L276.92 17.46Q276.92 20.05 276.92 22.79Q276.92 25.52 276.92 28L276.92 28Z" fill="black"/>
  </g>
  <g transform="translate(146.225312,25.976827) scale(2.448280)">
    <path d="M12.81 28L0.70 28Q0.70 25.52 0.70 23.03Q0.70 20.54 0.70 18.04Q0.70 15.54 0.70 13.05L0.70 13.05Q0.70 11.34 0.70 9.66Q0.70 7.98 0.70 6.30L0.70 6.30L12.81 6.30Q12.81 8.61 12.81 10.90Q12.81 13.19 12.81 15.50L12.81 15.50Q12.81 18.62 12.81 21.75Q12.81 24.88 12.81 28L12.81 28ZM28.84 28L16.73 28Q16.73 25.27 16.73 22.47Q16.73 19.67 16.73 16.94L16.73 16.94Q16.73 15.92 16.22 15.50Q15.72 15.08 15.02 15.05Q14.32 15.01 13.74 15.22Q13.16 15.43 13.02 15.64L13.02 15.64L15.82 6.65Q18.38 5.53 21.35 5.53L21.35 5.53Q22.82 5.53 24.15 5.88Q25.48 6.23 26.55 6.96Q27.62 7.70 28.23 8.91Q28.84 10.11 28.84 11.79L28.84 11.79Q28.84 12.81 28.84 13.86Q28.84 14.91 28.84 15.92L28.84 15.92Q28.84 16.41 28.84 16.92Q28.84 17.43 28.84 17.92Q28.84 18.41 28.84 18.93L28.84 18.93Q28.84 21.17 28.84 23.45Q28.84 25.73 28.84 28L28.84 28ZM44.66 28L32.55 28Q32.55 25.27 32.55 22.47Q32.55 19.67 32.55 16.94L32.55 16.94Q32.55 15.92 32.04 15.50Q31.54 15.08 30.84 15.05Q30.14 15.01 29.56 15.22Q28.98 15.43 28.84 15.64L28.84 15.64L31.29 6.65Q32.55 6.09 34.00 5.81Q35.46 5.53 36.89 5.53L36.89 5.53Q38.92 5.53 40.69 6.16Q42.46 6.79 43.56 8.15Q44.66 9.52 44.66 11.79L44.66 11.79L44.66 28ZM61.50 20.09L61.50 20.09Q63.35 20.09 64.37 19.42Q65.38 18.76 65.42 17.60L65.42 17.60L76.23 21.14Q75.60 23.34 73.55 25.15Q71.51 26.95 68.39 28Q65.28 29.05 61.43 29.05L61.43 29.05Q58.14 29.05 55.28 28.32Q52.43 27.58 50.28 26.09Q48.13 24.61 46.90 22.36Q45.68 20.13 45.68 17.15L45.68 17.15Q45.68 14.17 46.90 11.93Q48.13 9.69 50.28 8.21Q52.43 6.72 55.30 5.98Q58.17 5.25 61.43 5.25L61.43 5.25Q64.75 5.25 67.53 5.98Q70.31 6.72 72.33 8.24Q74.34 9.76 75.44 12.09Q76.55 14.42 76.55 17.60L76.55 17.60L57.47 17.60Q57.47 17.60 57.45 17.60Q57.44 17.60 57.44 17.60Q57.44 17.60 57.44 17.64L57.44 17.64Q57.44 18.16 57.72 18.62Q58.00 19.07 58.50 19.41Q59.01 19.74 59.76 19.91Q60.52 20.09 61.50 20.09ZM61.43 14.10L61.43 14.10Q59.71 14.10 58.59 14.72Q57.47 15.33 57.47 16.45L57.47 16.45Q57.47 16.48 57.47 16.50Q57.47 16.52 57.47 16.52Q57.47 16.52 57.49 16.52Q57.51 16.52 57.51 16.52L57.51 16.52L65.31 16.52Q65.34 16.52 65.34 16.50Q65.34 16.48 65.34 16.45L65.34 16.45Q65.34 15.89 65.05 15.45Q64.75 15.01 64.23 14.72Q63.70 14.42 62.98 14.26Q62.27 14.10 61.43 14.10ZM77.53 6.30L89.64 6.30Q89.64 8.40 89.64 10.52Q89.64 12.63 89.64 14.75Q89.64 16.87 89.64 19.00L89.64 19.00Q89.64 21.24 89.64 23.48Q89.64 25.73 89.64 28L89.64 28L77.53 28Q77.53 24.54 77.53 21.07Q77.53 17.60 77.53 14.14L77.53 14.14Q77.53 12.18 77.53 10.22Q77.53 8.26 77.53 6.30L77.53 6.30ZM89.60 19.67L89.60 19.67L91.49 10.25Q91.81 8.75 92.73 7.75Q93.66 6.75 94.92 6.23Q96.18 5.70 97.51 5.58Q98.84 5.46 99.96 5.69Q101.08 5.91 101.75 6.44L101.75 6.44L99.09 19.46Q98.07 18.62 96.62 18.30Q95.17 17.99 93.70 18.08Q92.23 18.16 91.11 18.59Q89.98 19.00 89.60 19.67ZM149.03 20.09L149.03 20.09Q150.89 20.09 151.90 19.42Q152.92 18.76 152.95 17.60L152.95 17.60L163.77 21.14Q163.14 23.34 161.09 25.15Q159.04 26.95 155.93 28Q152.81 29.05 148.96 29.05L148.96 29.05Q145.67 29.05 142.82 28.32Q139.97 27.58 137.81 26.09Q135.66 24.61 134.44 22.36Q133.21 20.13 133.21 17.15L133.21 17.15Q133.21 14.17 134.44 11.93Q135.66 9.69 137.81 8.21Q139.97 6.72 142.84 5.98Q145.71 5.25 148.96 5.25L148.96 5.25Q152.29 5.25 155.07 5.98Q157.85 6.72 159.86 8.24Q161.88 9.76 162.98 12.09Q164.08 14.42 164.08 17.60L164.08 17.60L145.01 17.60Q145.01 17.60 144.99 17.60Q144.97 17.60 144.97 17.60Q144.97 17.60 144.97 17.64L144.97 17.64Q144.97 18.16 145.25 18.62Q145.53 19.07 146.04 19.41Q146.55 19.74 147.30 19.91Q148.05 20.09 149.03 20.09ZM148.96 14.10L148.96 14.10Q147.25 14.10 146.13 14.72Q145.01 15.33 145.01 16.45L145.01 16.45Q145.01 16.48 145.01 16.50Q145.01 16.52 145.01 16.52Q145.01 16.52 145.02 16.52Q145.04 16.52 145.04 16.52L145.04 16.52L152.85 16.52Q152.88 16.52 152.88 16.50Q152.88 16.48 152.88 16.45L152.88 16.45Q152.88 15.89 152.58 15.45Q152.29 15.01 151.76 14.72Q151.24 14.42 150.52 14.26Q149.80 14.10 148.96 14.10Z" fill="black"/>
  </g>
  <g transform="translate(393.524572,37.456237) scale(1.962944)">
    <path d="M19.64 0.70L19.64 0.70Q25.87 0.70 29.93 2.24Q33.99 3.78 36.16 6.42Q38.33 9.06 38.89 12.39L38.89 12.39L23.77 15.96Q24.15 14.63 23.80 13.65Q23.45 12.67 22.40 12.11Q21.35 11.55 19.60 11.55L19.60 11.55Q17.96 11.55 16.99 12.00Q16.03 12.46 15.63 13.14Q15.23 13.82 15.23 14.59L15.23 14.59Q15.23 15.15 15.47 15.66Q15.72 16.17 16.24 16.59Q16.77 17.01 17.61 17.25Q18.45 17.50 19.60 17.50L19.60 17.50Q21.39 17.50 22.37 17.10Q23.35 16.70 23.77 15.96L23.77 15.96Q23.21 18.02 22.65 20.13Q22.09 22.23 21.51 24.34Q20.93 26.46 20.37 28.52L20.37 28.52Q19.43 28.70 18.53 28.79Q17.64 28.88 16.42 28.88L16.42 28.88Q13.76 28.88 11.53 28.39Q9.31 27.89 7.53 27.00Q5.74 26.11 4.39 24.85Q3.05 23.59 2.15 22.03Q1.26 20.48 0.81 18.67Q0.35 16.87 0.35 14.91L0.35 14.91Q0.35 13.30 0.68 11.78Q1.02 10.25 1.73 8.84Q2.45 7.42 3.57 6.18Q4.69 4.93 6.21 3.94Q7.74 2.94 9.73 2.20Q11.73 1.47 14.19 1.08Q16.66 0.70 19.64 0.70ZM38.61 28L23.77 28Q23.77 25.97 23.77 23.98Q23.77 21.98 23.77 19.97Q23.77 17.95 23.77 15.96L23.77 15.96Q26.25 15.96 28.72 15.96Q31.19 15.96 33.67 15.96Q36.16 15.96 38.61 15.96L38.61 15.96L38.61 28Z" fill="black"/>
  </g>
</svg>