<svg xmlns="http://www.w3.org/2000/svg" viewBox="0 0 535.2845 88.0604">
  <svg x="0" y="2.037479" width="117.579568" height="83.985406" viewBox="0 0 56 40" preserveAspectRatio="none">
    <path d="M43 0C50.1797 6.44277e-07 56 5.8203 56 13C56 20.1797 50.1797 26 43 26H34.4844L48.4844 40H31.5156L15.7578 24.2422C14.672 23.1564 14 21.6569 14 20C14 16.6863 16.6863 14 20 14H43C43.5523 14 44 13.5523 44 13C44 12.4477 43.5523 12 43 12H20C15.5817 12 12 15.5817 12 20C12 22.3901 13.0482 24.5347 14.71 26H14.6875L28.6875 40H20C8.95431 40 0 31.0457 0 20C0 8.95431 8.9543 0 20 0H43Z" fill="B"/>
    <path d="M56 28V40H51.3125L39.3125 28H56Z" fill="B"/>
  </svg>
  <g transform="translate(135.164470,-0.818442) scale(1.091256)">
    <path d="M2.42 6.56L2.42 6.56L2.42 14.92Q3.99 13.91 6.09 13.38Q8.19 12.86 10.26 12.86L10.26 12.86Q11.59 12.86 12.79 13.10Q14.00 13.35 14.93 13.86Q15.86 14.36 16.40 15.15Q16.94 15.94 16.94 17.02L16.94 17.02Q16.94 17.06 16.94 17.11Q16.94 17.16 16.94 17.22Q16.94 17.27 16.94 17.34L16.94 17.34Q16.42 16.64 15.59 16.08Q14.77 15.52 13.74 15.13Q12.71 14.75 11.55 14.56Q10.40 14.36 9.17 14.36L9.17 14.36Q7.28 14.36 5.81 14.73Q4.34 15.10 3.27 15.76Q2.21 16.43 1.51 17.30Q0.81 18.18 0.46 19.16Q0.11 20.14 0.11 21.16L0.11 21.16Q0.11 22.84 0.81 24.09Q1.51 25.36 2.71 26.20Q3.92 27.04 5.44 27.47Q6.97 27.91 8.61 27.91L8.61 27.91Q9.98 27.91 11.36 27.65Q12.74 27.39 14.00 26.75L14.00 26.75Q14.74 25.04 15.49 23.32Q16.24 21.61 16.98 19.89L16.98 19.89Q16.56 20.91 15.75 21.16Q14.95 21.40 14.32 21.40L14.32 21.40Q13.02 21.40 12.32 20.86Q11.62 20.31 11.62 19.65L11.62 19.65Q11.62 18.98 12.30 18.46Q12.99 17.93 14.32 17.93L14.32 17.93Q14.91 17.93 15.51 18.09Q16.10 18.25 16.52 18.63Q16.94 19.02 16.94 19.65L16.94 19.65Q16.94 21.47 16.94 23.31Q16.94 25.14 16.94 27L16.94 27Q18.17 27 19.39 27Q20.62 27 21.84 27Q23.07 27 24.29 27Q25.52 27 26.74 27Q27.97 27 29.19 27L29.19 27Q29.19 23.61 29.19 20.21Q29.19 16.81 29.19 13.42L29.19 13.42Q29.19 11.11 27.93 9.39Q26.67 7.68 24.52 6.52Q22.37 5.37 19.64 4.81Q16.91 4.25 13.97 4.25L13.97 4.25Q10.96 4.25 7.96 4.83Q4.97 5.40 2.42 6.56ZM46.38 5.30L58.49 5.30Q58.49 7.64 58.49 10.02Q58.49 12.40 58.49 14.78L58.49 14.78Q58.49 16.81 58.49 18.86Q58.49 20.91 58.49 22.94Q58.49 24.97 58.49 27L58.49 27L46.38 27Q46.38 25.53 46.38 24.02Q46.38 22.52 46.38 21.00Q46.38 19.48 46.38 18.04L46.38 18.04Q46.38 14.78 46.38 11.65Q46.38 8.52 46.38 5.30L46.38 5.30ZM30.56 5.30L42.67 5.30Q42.67 7.15 42.67 9.03Q42.67 10.90 42.67 12.75Q42.67 14.61 42.67 16.50L42.67 16.50Q42.67 17.27 42.93 17.74Q43.19 18.21 43.63 18.41Q44.07 18.60 44.56 18.60L44.56 18.60Q45.05 18.60 45.55 18.42Q46.06 18.25 46.38 18.00L46.38 18.00L43.58 26.65Q42.60 27.14 41.18 27.45Q39.76 27.77 38.22 27.77L38.22 27.77Q36.82 27.77 35.46 27.44Q34.09 27.11 32.99 26.34Q31.89 25.57 31.22 24.30Q30.56 23.04 30.56 21.16L30.56 21.16Q30.56 18.63 30.56 16.11Q30.56 13.59 30.56 11.07L30.56 11.07Q30.56 9.64 30.56 8.19Q30.56 6.73 30.56 5.30L30.56 5.30ZM81.20 14.82L71.96 14.82Q72.38 13.21 72.78 11.63Q73.19 10.06 73.59 8.47Q73.99 6.87 74.38 5.30L74.38 5.30L81.20 5.30L81.20 14.82ZM59.96 17.86L59.96 17.86Q59.96 14.85 59.96 11.53Q59.96 8.20 59.96 5.23L59.96 5.23L71.93 2.36Q71.93 4.07 71.93 5.86Q71.93 7.64 71.93 9.43L71.93 9.43Q71.93 10.72 71.93 12.02Q71.93 13.31 71.93 14.57L71.93 14.57Q71.93 14.61 71.93 14.61Q71.93 14.61 71.93 14.64L71.93 14.64Q71.93 15.31 72.22 15.80Q72.52 16.29 73.06 16.62Q73.61 16.95 74.34 17.13Q75.08 17.30 75.98 17.30L75.98 17.30Q77 17.30 78.05 16.99Q79.10 16.67 79.96 16.11Q80.81 15.55 81.20 14.82L81.20 14.82L81.20 25.46Q79.70 26.65 77.31 27.23Q74.94 27.80 72.56 27.80L72.56 27.80Q68.95 27.80 66.10 26.63Q63.25 25.46 61.60 23.24Q59.96 21.02 59.96 17.86ZM94.71 27L82.60 27Q82.60 23.75 82.60 20.52Q82.60 17.30 82.60 14.07Q82.60 10.83 82.60 7.61L82.60 7.61Q82.60 5.86 82.60 4.16Q82.60 2.46 82.60 0.75L82.60 0.75L94.71 0.75Q94.71 1.83 94.71 3.29Q94.71 4.74 94.71 6.31Q94.71 7.89 94.71 9.36L94.71 9.36Q94.71 11.32 94.71 12.72Q94.71 14.12 94.71 14.29L94.71 14.29Q94.71 14.47 94.71 15.08Q94.71 15.69 94.71 16.57L94.71 16.57Q94.71 17.73 94.71 19.16Q94.71 20.59 94.71 22.08Q94.71 23.57 94.71 24.86Q94.71 26.16 94.71 27L94.71 27ZM110.53 27L98.42 27Q98.42 25.63 98.42 24.27Q98.42 22.91 98.42 21.56Q98.42 20.21 98.42 18.84Q98.42 17.48 98.42 16.11L98.42 16.11Q98.42 15.10 97.91 14.64Q97.41 14.19 96.71 14.14Q96.01 14.08 95.43 14.26Q94.85 14.43 94.71 14.64L94.71 14.64L97.51 5.65Q98.77 5.09 100.21 4.81Q101.64 4.53 103.04 4.53L103.04 4.53Q105 4.53 106.70 5.16Q108.40 5.79 109.46 7.15Q110.53 8.52 110.53 10.79L110.53 10.79Q110.53 13.49 110.53 16.20Q110.53 18.91 110.53 21.61Q110.53 24.30 110.53 27L110.53 27ZM127.37 19.09L127.37 19.09Q129.22 19.09 130.24 18.42Q131.25 17.76 131.29 16.60L131.29 16.60L142.10 20.14Q141.47 22.34 139.42 24.15Q137.38 25.95 134.26 27Q131.15 28.05 127.30 28.05L127.30 28.05Q124.01 28.05 121.15 27.32Q118.30 26.58 116.15 25.09Q114.00 23.61 112.77 21.36Q111.55 19.13 111.55 16.15L111.55 16.15Q111.55 13.17 112.77 10.93Q114.00 8.69 116.15 7.21Q118.30 5.72 121.17 4.98Q124.04 4.25 127.30 4.25L127.30 4.25Q130.62 4.25 133.40 4.98Q136.19 5.72 138.20 7.24Q140.21 8.76 141.31 11.09Q142.42 13.42 142.42 16.60L142.42 16.60L123.34 16.60Q123.34 16.60 123.32 16.60Q123.31 16.60 123.31 16.60Q123.31 16.60 123.31 16.64L123.31 16.64Q123.31 17.16 123.59 17.62Q123.87 18.07 124.37 18.41Q124.88 18.74 125.63 18.91Q126.39 19.09 127.37 19.09ZM127.30 13.10L127.30 13.10Q125.58 13.10 124.46 13.72Q123.34 14.33 123.34 15.45L123.34 15.45Q123.34 15.48 123.34 15.50Q123.34 15.52 123.34 15.52Q123.34 15.52 123.36 15.52Q123.38 15.52 123.38 15.52L123.38 15.52L131.18 15.52Q131.22 15.52 131.22 15.50Q131.22 15.48 131.22 15.45L131.22 15.45Q131.22 14.89 130.92 14.45Q130.62 14.01 130.09 13.72Q129.57 13.42 128.85 13.26Q128.14 13.10 127.30 13.10ZM171.33 27L159.22 27Q159.22 24.27 159.22 21.47Q159.22 18.67 159.22 15.94L159.22 15.94Q159.22 14.92 158.71 14.50Q158.20 14.08 157.50 14.05Q156.80 14.01 156.22 14.22Q155.65 14.43 155.51 14.64L155.51 14.64L158.31 5.65Q159.57 5.09 161.00 4.81Q162.44 4.53 163.84 4.53L163.84 4.53Q165.80 4.53 167.49 5.16Q169.19 5.79 170.26 7.15Q171.33 8.52 171.33 10.79L171.33 10.79L171.33 27ZM155.51 27L143.40 27Q143.40 24.76 143.40 22.50Q143.40 20.24 143.40 17.99Q143.40 15.73 143.40 13.49L143.40 13.49Q143.40 11.42 143.40 9.38Q143.40 7.33 143.40 5.30L143.40 5.30Q145.43 5.30 147.44 5.30Q149.45 5.30 151.48 5.30Q153.51 5.30 155.51 5.30L155.51 5.30Q155.51 6.56 155.51 7.70Q155.51 8.83 155.51 9.97Q155.51 11.11 155.51 12.25Q155.51 13.38 155.51 14.64L155.51 14.64Q155.51 15.10 155.51 15.54Q155.51 15.97 155.51 16.46L155.51 16.46Q155.51 19.05 155.51 21.79Q155.51 24.52 155.51 27L155.51 27ZM194.00 14.82L184.77 14.82Q185.19 13.21 185.59 11.63Q185.99 10.06 186.39 8.47Q186.80 6.87 187.18 5.30L187.18 5.30L194.00 5.30L194.00 14.82ZM172.76 17.86L172.76 17.86Q172.76 14.85 172.76 11.53Q172.76 8.20 172.76 5.23L172.76 5.23L184.73 2.36Q184.73 4.07 184.73 5.86Q184.73 7.64 184.73 9.43L184.73 9.43Q184.73 10.72 184.73 12.02Q184.73 13.31 184.73 14.57L184.73 14.57Q184.73 14.61 184.73 14.61Q184.73 14.61 184.73 14.64L184.73 14.64Q184.73 15.31 185.03 15.80Q185.33 16.29 185.87 16.62Q186.41 16.95 187.15 17.13Q187.88 17.30 188.79 17.30L188.79 17.30Q189.81 17.30 190.86 16.99Q191.91 16.67 192.76 16.11Q193.62 15.55 194.00 14.82L194.00 14.82L194.00 25.46Q192.50 26.65 190.12 27.23Q187.74 27.80 185.36 27.80L185.36 27.80Q181.75 27.80 178.90 26.63Q176.05 25.46 174.41 23.24Q172.76 21.02 172.76 17.86ZM207.52 27L195.41 27Q195.41 25.39 195.41 23.80Q195.41 22.20 195.41 20.61Q195.41 19.02 195.41 17.45L195.41 17.45Q195.41 16.78 195.41 16.11Q195.41 15.45 195.41 14.78L195.41 14.78Q197.44 14.78 199.45 14.78Q201.46 14.78 203.49 14.78Q205.52 14.78 207.52 14.78L207.52 14.78Q207.52 16.81 207.52 18.84Q207.52 20.88 207.52 22.92Q207.52 24.97 207.52 27L207.52 27ZM195.41 14.78L195.41 14.78Q195.41 12.40 195.41 10.02Q195.41 7.64 195.41 5.30L195.41 5.30L207.52 5.30Q207.52 6.45 207.52 7.61Q207.52 8.76 207.52 9.92Q207.52 11.07 207.52 12.23L207.52 12.23Q207.52 12.23 207.50 12.25Q207.48 12.26 207.48 12.26L207.48 12.26Q204.47 12.89 201.44 13.52Q198.42 14.15 195.41 14.78ZM224.31 28.05L224.31 28.05Q221.03 28.05 218.17 27.32Q215.32 26.58 213.17 25.09Q211.02 23.61 209.79 21.36Q208.56 19.13 208.56 16.15L208.56 16.15Q208.56 14.61 208.90 13.28Q209.23 11.95 209.86 10.81Q210.49 9.67 211.38 8.73Q212.28 7.78 213.40 7.05L213.40 7.05Q214.83 6.10 216.55 5.49Q218.26 4.88 220.24 4.56Q222.22 4.25 224.31 4.25L224.31 4.25Q228.34 4.25 231.58 5.35Q234.81 6.45 236.93 8.66Q239.05 10.86 239.58 14.19L239.58 14.19L228.34 16.18Q228.34 15.24 227.75 14.64Q227.15 14.05 226.24 13.79Q225.33 13.52 224.31 13.52L224.31 13.52Q223.19 13.52 222.27 13.82Q221.34 14.12 220.81 14.70Q220.29 15.27 220.29 16.15L220.29 16.15Q220.29 16.81 220.59 17.30Q220.88 17.80 221.44 18.13Q222.00 18.46 222.74 18.62Q223.47 18.77 224.31 18.77L224.31 18.77Q225.30 18.77 226.22 18.53Q227.15 18.28 227.75 17.71Q228.34 17.13 228.34 16.18L228.34 16.18Q231.28 16.53 233.97 16.90Q236.67 17.27 239.61 17.66L239.61 17.66Q239.19 21.05 237.11 23.38Q235.03 25.70 231.72 26.88Q228.41 28.05 224.31 28.05ZM242.16 6.56L242.16 6.56L242.16 14.92Q243.74 13.91 245.84 13.38Q247.94 12.86 250.00 12.86L250.00 12.86Q251.34 12.86 252.54 13.10Q253.75 13.35 254.68 13.86Q255.60 14.36 256.15 15.15Q256.69 15.94 256.69 17.02L256.69 17.02Q256.69 17.06 256.69 17.11Q256.69 17.16 256.69 17.22Q256.69 17.27 256.69 17.34L256.69 17.34Q256.17 16.64 255.34 16.08Q254.52 15.52 253.49 15.13Q252.46 14.75 251.30 14.56Q250.15 14.36 248.92 14.36L248.92 14.36Q247.03 14.36 245.56 14.73Q244.09 15.10 243.02 15.76Q241.96 16.43 241.25 17.30Q240.56 18.18 240.21 19.16Q239.85 20.14 239.85 21.16L239.85 21.16Q239.85 22.84 240.56 24.09Q241.25 25.36 242.46 26.20Q243.67 27.04 245.19 27.47Q246.72 27.91 248.36 27.91L248.36 27.91Q249.72 27.91 251.11 27.65Q252.49 27.39 253.75 26.75L253.75 26.75Q254.49 25.04 255.24 23.32Q255.99 21.61 256.73 19.89L256.73 19.89Q256.31 20.91 255.50 21.16Q254.69 21.40 254.06 21.40L254.06 21.40Q252.77 21.40 252.07 20.86Q251.37 20.31 251.37 19.65L251.37 19.65Q251.37 18.98 252.05 18.46Q252.74 17.93 254.06 17.93L254.06 17.93Q254.66 17.93 255.25 18.09Q255.85 18.25 256.27 18.63Q256.69 19.02 256.69 19.65L256.69 19.65Q256.69 21.47 256.69 23.31Q256.69 25.14 256.69 27L256.69 27Q257.92 27 259.14 27Q260.37 27 261.59 27Q262.81 27 264.04 27Q265.26 27 266.49 27Q267.72 27 268.94 27L268.94 27Q268.94 23.61 268.94 20.21Q268.94 16.81 268.94 13.42L268.94 13.42Q268.94 11.11 267.68 9.39Q266.42 7.68 264.27 6.52Q262.12 5.37 259.38 4.81Q256.65 4.25 253.72 4.25L253.72 4.25Q250.71 4.25 247.71 4.83Q244.72 5.40 242.16 6.56ZM291.62 14.82L282.38 14.82Q282.80 13.21 283.20 11.63Q283.61 10.06 284.01 8.47Q284.41 6.87 284.80 5.30L284.80 5.30L291.62 5.30L291.62 14.82ZM270.38 17.86L270.38 17.86Q270.38 14.85 270.38 11.53Q270.38 8.20 270.38 5.23L270.38 5.23L282.35 2.36Q282.35 4.07 282.35 5.86Q282.35 7.64 282.35 9.43L282.35 9.43Q282.35 10.72 282.35 12.02Q282.35 13.31 282.35 14.57L282.35 14.57Q282.35 14.61 282.35 14.61Q282.35 14.61 282.35 14.64L282.35 14.64Q282.35 15.31 282.64 15.80Q282.94 16.29 283.48 16.62Q284.03 16.95 284.76 17.13Q285.50 17.30 286.41 17.30L286.41 17.30Q287.42 17.30 288.47 16.99Q289.52 16.67 290.38 16.11Q291.24 15.55 291.62 14.82L291.62 14.82L291.62 25.46Q290.12 26.65 287.74 27.23Q285.36 27.80 282.98 27.80L282.98 27.80Q279.37 27.80 276.52 26.63Q273.67 25.46 272.02 23.24Q270.38 21.02 270.38 17.86ZM305.13 27L293.02 27Q293.02 25.39 293.02 23.80Q293.02 22.20 293.02 20.61Q293.02 19.02 293.02 17.45L293.02 17.45Q293.02 16.78 293.02 16.11Q293.02 15.45 293.02 14.78L293.02 14.78Q295.05 14.78 297.06 14.78Q299.08 14.78 301.11 14.78Q303.14 14.78 305.13 14.78L305.13 14.78Q305.13 16.81 305.13 18.84Q305.13 20.88 305.13 22.92Q305.13 24.97 305.13 27L305.13 27ZM293.02 14.78L293.02 14.78Q293.02 12.40 293.02 10.02Q293.02 7.64 293.02 5.30L293.02 5.30L305.13 5.30Q305.13 6.45 305.13 7.61Q305.13 8.76 305.13 9.92Q305.13 11.07 305.13 12.23L305.13 12.23Q305.13 12.23 305.11 12.25Q305.10 12.26 305.10 12.26L305.10 12.26Q302.09 12.89 299.06 13.52Q296.03 14.15 293.02 14.78ZM321.93 28.05L321.93 28.05Q319.76 28.05 317.73 27.73Q315.70 27.42 313.95 26.77Q312.20 26.13 310.77 25.14Q309.33 24.16 308.32 22.85Q307.30 21.54 306.74 19.88Q306.18 18.21 306.18 16.18L306.18 16.18Q306.18 13.80 306.97 11.90Q307.76 9.99 309.21 8.55Q310.66 7.12 312.62 6.16Q314.58 5.19 316.94 4.72Q319.31 4.25 321.93 4.25L321.93 4.25Q325.22 4.25 328.07 5.00Q330.93 5.75 333.08 7.24Q335.23 8.73 336.46 10.97Q337.68 13.21 337.68 16.18L337.68 16.18Q337.68 19.16 336.46 21.38Q335.23 23.61 333.08 25.09Q330.93 26.58 328.07 27.32Q325.22 28.05 321.93 28.05ZM321.97 18.77L321.97 18.77Q324.14 18.77 325.05 17.93Q325.96 17.09 325.96 16.11L325.96 16.11Q325.96 15.66 325.75 15.20Q325.54 14.75 325.08 14.36Q324.63 13.98 323.86 13.75Q323.09 13.52 321.97 13.52L321.97 13.52Q320.85 13.52 320.06 13.75Q319.27 13.98 318.80 14.36Q318.33 14.75 318.12 15.20Q317.91 15.66 317.91 16.15L317.91 16.15Q317.91 16.64 318.12 17.11Q318.33 17.59 318.82 17.95Q319.31 18.32 320.08 18.55Q320.85 18.77 321.97 18.77ZM366.66 27L354.55 27Q354.55 24.27 354.55 21.47Q354.55 18.67 354.55 15.94L354.55 15.94Q354.55 14.92 354.04 14.50Q353.54 14.08 352.84 14.05Q352.14 14.01 351.56 14.22Q350.98 14.43 350.84 14.64L350.84 14.64L353.64 5.65Q354.90 5.09 356.34 4.81Q357.77 4.53 359.17 4.53L359.17 4.53Q361.13 4.53 362.83 5.16Q364.53 5.79 365.59 7.15Q366.66 8.52 366.66 10.79L366.66 10.79L366.66 27ZM350.84 27L338.73 27Q338.73 24.76 338.73 22.50Q338.73 20.24 338.73 17.99Q338.73 15.73 338.73 13.49L338.73 13.49Q338.73 11.42 338.73 9.38Q338.73 7.33 338.73 5.30L338.73 5.30Q340.76 5.30 342.77 5.30Q344.79 5.30 346.82 5.30Q348.85 5.30 350.84 5.30L350.84 5.30Q350.84 6.56 350.84 7.70Q350.84 8.83 350.84 9.97Q350.84 11.11 350.84 12.25Q350.84 13.38 350.84 14.64L350.84 14.64Q350.84 15.10 350.84 15.54Q350.84 15.97 350.84 16.46L350.84 16.46Q350.84 19.05 350.84 21.79Q350.84 24.52 350.84 27L350.84 27Z" fill="black"/>
  </g>
  <g transform="translate(133.570712,16.937827) scale(2.448280)">
    <path d="M12.81 28L0.70 28Q0.70 25.52 0.70 23.03Q0.70 20.54 0.70 18.04Q0.70 15.54 0.70 13.05L0.70 13.05Q0.70 11.34 0.70 9.66Q0.70 7.98 0.70 6.30L0.70 6.30L12.81 6.30Q12.81 8.61 12.81 10.90Q12.81 13.19 12.81 15.50L12.81 15.50Q12.81 18.62 12.81 21.75Q12.81 24.88 12.81 28L12.81 28ZM28.84 28L16.73 28Q16.73 25.27 16.73 22.47Q16.73 19.67 16.73 16.94L16.73 16.94Q16.73 15.92 16.22 15.50Q15.72 15.08 15.02 15.05Q14.32 15.01 13.74 15.22Q13.16 15.43 13.02 15.64L13.02 15.64L15.82 6.65Q18.38 5.53 21.35 5.53L21.35 5.53Q22.82 5.53 24.15 5.88Q25.48 6.23 26.55 6.96Q27.62 7.70 28.23 8.91Q28.84 10.11 28.84 11.79L28.84 11.79Q28.84 12.81 28.84 13.86Q28.84 14.91 28.84 15.92L28.84 15.92Q28.84 16.41 28.84 16.92Q28.84 17.43 28.84 17.92Q28.84 18.41 28.84 18.93L28.84 18.93Q28.84 21.17 28.84 23.45Q28.84 25.73 28.84 28L28.84 28ZM44.66 28L32.55 28Q32.55 25.27 32.55 22.47Q32.55 19.67 32.55 16.94L32.55 16.94Q32.55 15.92 32.04 15.50Q31.54 15.08 30.84 15.05Q30.14 15.01 29.56 15.22Q28.98 15.43 28.84 15.64L28.84 15.64L31.29 6.65Q32.55 6.09 34.00 5.81Q35.46 5.53 36.89 5.53L36.89 5.53Q38.92 5.53 40.69 6.16Q42.46 6.79 43.56 8.15Q44.66 9.52 44.66 11.79L44.66 11.79L44.66 28ZM61.50 20.09L61.50 20.09Q63.35 20.09 64.37 19.42Q65.38 18.76 65.42 17.60L65.42 17.60L76.23 21.14Q75.60 23.34 73.55 25.15Q71.51 26.95 68.39 28Q65.28 29.05 61.43 29.05L61.43 29.05Q58.14 29.05 55.28 28.32Q52.43 27.58 50.28 26.09Q48.13 24.61 46.90 22.36Q45.68 20.13 45.68 17.15L45.68 17.15Q45.68 14.17 46.90 11.93Q48.13 9.69 50.28 8.21Q52.43 6.72 55.30 5.98Q58.17 5.25 61.43 5.25L61.43 5.25Q64.75 5.25 67.53 5.98Q70.31 6.72 72.33 8.24Q74.34 9.76 75.44 12.09Q76.55 14.42 76.55 17.60L76.55 17.60L57.47 17.60Q57.47 17.60 57.45 17.60Q57.44 17.60 57.44 17.60Q57.44 17.60 57.44 17.64L57.44 17.64Q57.44 18.16 57.72 18.62Q58.00 19.07 58.50 19.41Q59.01 19.74 59.76 19.91Q60.52 20.09 61.50 20.09ZM61.43 14.10L61.43 14.10Q59.71 14.10 58.59 14.72Q57.47 15.33 57.47 16.45L57.47 16.45Q57.47 16.48 57.47 16.50Q57.47 16.52 57.47 16.52Q57.47 16.52 57.49 16.52Q57.51 16.52 57.51 16.52L57.51 16.52L65.31 16.52Q65.34 16.52 65.34 16.50Q65.34 16.48 65.34 16.45L65.34 16.45Q65.34 15.89 65.05 15.45Q64.75 15.01 64.23 14.72Q63.70 14.42 62.98 14.26Q62.27 14.10 61.43 14.10ZM77.53 6.30L89.64 6.30Q89.64 8.40 89.64 10.52Q89.64 12.63 89.64 14.75Q89.64 16.87 89.64 19.00L89.64 19.00Q89.64 21.24 89.64 23.48Q89.64 25.73 89.64 28L89.64 28L77.53 28Q77.53 24.54 77.53 21.07Q77.53 17.60 77.53 14.14L77.53 14.14Q77.53 12.18 77.53 10.22Q77.53 8.26 77.53 6.30L77.53 6.30ZM89.60 19.67L89.60 19.67L91.49 10.25Q91.81 8.75 92.73 7.75Q93.66 6.75 94.92 6.23Q96.18 5.70 97.51 5.58Q98.84 5.46 99.96 5.69Q101.08 5.91 101.75 6.44L101.75 6.44L99.09 19.46Q98.07 18.62 96.62 18.30Q95.17 17.99 93.70 18.08Q92.23 18.16 91.11 18.59Q89.98 19.00 89.60 19.67ZM149.03 20.09L149.03 20.09Q150.89 20.09 151.90 19.42Q152.92 18.76 152.95 17.60L152.95 17.60L163.77 21.14Q163.14 23.34 161.09 25.15Q159.04 26.95 155.93 28Q152.81 29.05 148.96 29.05L148.96 29.05Q145.67 29.05 142.82 28.32Q139.97 27.58 137.81 26.09Q135.66 24.61 134.44 22.36Q133.21 20.13 133.21 17.15L133.21 17.15Q133.21 14.17 134.44 11.93Q135.66 9.69 137.81 8.21Q139.97 6.72 142.84 5.98Q145.71 5.25 148.96 5.25L148.96 5.25Q152.29 5.25 155.07 5.98Q157.85 6.72 159.86 8.24Q161.88 9.76 162.98 12.09Q164.08 14.42 164.08 17.60L164.08 17.60L145.01 17.60Q145.01 17.60 144.99 17.60Q144.97 17.60 144.97 17.60Q144.97 17.60 144.97 17.64L144.97 17.64Q144.97 18.16 145.25 18.62Q145.53 19.07 146.04 19.41Q146.55 19.74 147.30 19.91Q148.05 20.09 149.03 20.09ZM148.96 14.10L148.96 14.10Q147.25 14.10 146.13 14.72Q145.01 15.33 145.01 16.45L145.01 16.45Q145.01 16.48 145.01 16.50Q145.01 16.52 145.01 16.52Q145.01 16.52 145.02 16.52Q145.04 16.52 145.04 16.52L145.04 16.52L152.85 16.52Q152.88 16.52 152.88 16.50Q152.88 16.48 152.88 16.45L152.88 16.45Q152.88 15.89 152.58 15.45Q152.29 15.01 151.76 14.72Q151.24 14.42 150.52 14.26Q149.80 14.10 148.96 14.10Z" fill="black"/>
  </g>
  <g transform="translate(380.869972,28.417237) scale(1.962944)">
    <path d="M19.64 0.70L19.64 0.70Q25.87 0.70 29.93 2.24Q33.99 3.78 36.16 6.42Q38.33 9.06 38.89 12.39L38.89 12.39L23.77 15.96Q24.15 14.63 23.80 13.65Q23.45 12.67 22.40 12.11Q21.35 11.55 19.60 11.55L19.60 11.55Q17.96 11.55 16.99 12.00Q16.03 12.46 15.63 13.14Q15.23 13.82 15.23 14.59L15.23 14.59Q15.23 15.15 15.47 15.66Q15.72 16.17 16.24 16.59Q16.77 17.01 17.61 17.25Q18.45 17.50 19.60 17.50L19.60 17.50Q21.39 17.50 22.37 17.10Q23.35 16.70 23.77 15.96L23.77 15.96Q23.21 18.02 22.65 20.13Q22.09 22.23 21.51 24.34Q20.93 26.46 20.37 28.52L20.37 28.52Q19.43 28.70 18.53 28.79Q17.64 28.88 16.42 28.88L16.42 28.88Q13.76 28.88 11.53 28.39Q9.31 27.89 7.53 27.00Q5.74 26.11 4.39 24.85Q3.05 23.59 2.15 22.03Q1.26 20.48 0.81 18.67Q0.35 16.87 0.35 14.91L0.35 14.91Q0.35 13.30 0.68 11.78Q1.02 10.25 1.73 8.84Q2.45 7.42 3.57 6.18Q4.69 4.93 6.21 3.94Q7.74 2.94 9.73 2.20Q11.73 1.47 14.19 1.08Q16.66 0.70 19.64 0.70ZM38.61 28L23.77 28Q23.77 25.97 23.77 23.98Q23.77 21.98 23.77 19.97Q23.77 17.95 23.77 15.96L23.77 15.96Q26.25 15.96 28.72 15.96Q31.19 15.96 33.67 15.96Q36.16 15.96 38.61 15.96L38.61 15.96L38.61 28Z" fill="black"/>
  </g>
</svg>